# xmcd
#
# Track frame offsets:
#	150
#	22841
#	43914
#	59487
#	75795
#	99674
#	116956
#	132280
#	145999
#	164269
#	190301
#
# Disc length: 2744 seconds
#
# Revision: 1
# Processed by: cddbd v1.5.1PL2 Copyright (c) Steve Scherf et al.
# Submitted via: audiograbber 1.81.03
#
DISCID=940ab60b
DTITLE=Herald`Nix - Soul of a Kiss
DYEAR=2005
DGENRE=Blues
TTITLE0=The`Bright Side of Nothing
TTITLE1=I Think Of You
TTITLE2=Patti's Work Song
TTITLE3=Hurry On
TTITLE4=Small Blessings
TTITLE5=Love Looks Good On You
TTITLE6=Tomorrow's Another Day
TTITLE7=I've Got Your Photograph
TTITLE8=Soul Of A Kiss
TTITLE9=The Leland Hotel Fire
TTITLE10=King Of Guys
EXTD=
EXTT0=
EXTT1=
EXTT2=
EXTT3=
EXTT4=
EXTT5=
EXTT6=
EXTT7=
EXTT8=
EXTT9=
EXTT10=
PLAYORDER=
